<svg width="17" height="15" viewBox="0 0 17 15" fill="none" xmlns="http://www.w3.org/2000/svg">
<path d="M13.75 10.7248H11.8563C11.7444 10.7249 11.6341 10.7503 11.5335 10.799C11.4328 10.8477 11.3445 10.9185 11.275 11.0061L9.08125 13.7436C9.01099 13.8314 8.92186 13.9024 8.82046 13.9511C8.71907 13.9999 8.608 14.0252 8.4955 14.0252C8.383 14.0252 8.27193 13.9999 8.17054 13.9511C8.06914 13.9024 7.98001 13.8314 7.90975 13.7436L5.716 11.0061C5.64646 10.9184 5.558 10.8475 5.45721 10.7988C5.35643 10.7501 5.24594 10.7248 5.134 10.7248H3.25C2.0035 10.7248 1 9.72132 1 8.47482V3.22482C1 1.97832 2.0035 0.974823 3.25 0.974823H13.75C14.9972 0.974823 16 1.97832 16 3.22482V8.47482C16 9.72132 14.9972 10.7248 13.75 10.7248Z" stroke="#151515" stroke-width="1.6" stroke-miterlimit="10" stroke-linejoin="round"/>
</svg>
