<svg width="20" height="20" viewBox="0 0 20 20" fill="none" xmlns="http://www.w3.org/2000/svg">
<path d="M7.22656 14.2679C7.64974 14.4827 8.0306 14.7464 8.36914 15.0589C8.70768 15.3714 9.00065 15.723 9.24805 16.1136C9.49544 16.5042 9.68099 16.9209 9.80469 17.3636C9.92839 17.8063 9.99349 18.2685 10 18.7503H8.75C8.75 18.236 8.65234 17.751 8.45703 17.2952C8.26172 16.8395 7.99479 16.4424 7.65625 16.1038C7.31771 15.7653 6.91732 15.4951 6.45508 15.2933C5.99284 15.0915 5.50781 14.9938 5 15.0003C4.47917 15.0003 3.99414 15.098 3.54492 15.2933C3.0957 15.4886 2.69857 15.7555 2.35352 16.0941C2.00846 16.4326 1.73828 16.833 1.54297 17.2952C1.34766 17.7575 1.25 18.2425 1.25 18.7503H0C0 18.275 0.0651042 17.8161 0.195312 17.3734C0.325521 16.9306 0.511068 16.514 0.751953 16.1234C0.992839 15.7327 1.28255 15.3812 1.62109 15.0687C1.95964 14.7562 2.34375 14.4892 2.77344 14.2679C2.29167 13.9098 1.91732 13.4671 1.65039 12.9398C1.38346 12.4124 1.25 11.8493 1.25 11.2503C1.25 10.736 1.34766 10.251 1.54297 9.79523C1.73828 9.3395 2.00521 8.94236 2.34375 8.60382C2.68229 8.26528 3.07943 7.9951 3.53516 7.79327C3.99089 7.59145 4.47917 7.49379 5 7.50031C5.59896 7.50031 6.16211 7.63377 6.68945 7.9007C7.2168 8.16762 7.65951 8.54197 8.01758 9.02374C8.26497 8.53546 8.58073 8.09926 8.96484 7.71515C9.34896 7.33103 9.78516 7.01528 10.2734 6.76788C9.79167 6.40981 9.41732 5.9671 9.15039 5.43976C8.88346 4.91241 8.75 4.34926 8.75 3.75031C8.75 3.23598 8.84766 2.75096 9.04297 2.29523C9.23828 1.8395 9.50521 1.44236 9.84375 1.10382C10.1823 0.765279 10.5794 0.495097 11.0352 0.293274C11.4909 0.091451 11.9792 -0.00620524 12.5 0.000305176C13.0143 0.000305176 13.4993 0.0979614 13.9551 0.293274C14.4108 0.488586 14.8079 0.755513 15.1465 1.09406C15.485 1.4326 15.7552 1.83299 15.957 2.29523C16.1589 2.75747 16.2565 3.24249 16.25 3.75031C16.25 4.34926 16.1165 4.91241 15.8496 5.43976C15.5827 5.9671 15.2083 6.40981 14.7266 6.76788C15.1497 6.98273 15.5306 7.2464 15.8691 7.5589C16.2077 7.8714 16.5007 8.22296 16.748 8.61359C16.9954 9.00421 17.181 9.42088 17.3047 9.86359C17.4284 10.3063 17.4935 10.7685 17.5 11.2503H16.25C16.25 10.736 16.1523 10.251 15.957 9.79523C15.7617 9.3395 15.4948 8.94236 15.1562 8.60382C14.8177 8.26528 14.4173 7.9951 13.9551 7.79327C13.4928 7.59145 13.0078 7.49379 12.5 7.50031C11.9792 7.50031 11.4941 7.59796 11.0449 7.79327C10.5957 7.98859 10.1986 8.25551 9.85352 8.59406C9.50846 8.9326 9.23828 9.33299 9.04297 9.79523C8.84766 10.2575 8.75 10.7425 8.75 11.2503C8.75 11.8493 8.61654 12.4124 8.34961 12.9398C8.08268 13.4671 7.70833 13.9098 7.22656 14.2679ZM10 3.75031C10 4.09536 10.0651 4.41762 10.1953 4.7171C10.3255 5.01658 10.5046 5.28351 10.7324 5.51788C10.9603 5.75226 11.224 5.93129 11.5234 6.05499C11.8229 6.17869 12.1484 6.24379 12.5 6.25031C12.8451 6.25031 13.1673 6.1852 13.4668 6.05499C13.7663 5.92478 14.0332 5.74575 14.2676 5.51788C14.502 5.29002 14.681 5.02635 14.8047 4.72687C14.9284 4.42739 14.9935 4.10187 15 3.75031C15 3.40525 14.9349 3.08299 14.8047 2.78351C14.6745 2.48403 14.4954 2.2171 14.2676 1.98273C14.0397 1.74835 13.776 1.56932 13.4766 1.44562C13.1771 1.32192 12.8516 1.25682 12.5 1.25031C12.1549 1.25031 11.8327 1.31541 11.5332 1.44562C11.2337 1.57583 10.9668 1.75486 10.7324 1.98273C10.498 2.21059 10.319 2.47426 10.1953 2.77374C10.0716 3.07322 10.0065 3.39874 10 3.75031ZM2.5 11.2503C2.5 11.5954 2.5651 11.9176 2.69531 12.2171C2.82552 12.5166 3.00456 12.7835 3.23242 13.0179C3.46029 13.2523 3.72396 13.4313 4.02344 13.555C4.32292 13.6787 4.64844 13.7438 5 13.7503C5.34505 13.7503 5.66732 13.6852 5.9668 13.555C6.26628 13.4248 6.5332 13.2457 6.76758 13.0179C7.00195 12.79 7.18099 12.5263 7.30469 12.2269C7.42839 11.9274 7.49349 11.6019 7.5 11.2503C7.5 10.9053 7.4349 10.583 7.30469 10.2835C7.17448 9.98403 6.99544 9.7171 6.76758 9.48273C6.53971 9.24835 6.27604 9.06932 5.97656 8.94562C5.67708 8.82192 5.35156 8.75682 5 8.75031C4.65495 8.75031 4.33268 8.81541 4.0332 8.94562C3.73372 9.07583 3.4668 9.25486 3.23242 9.48273C2.99805 9.71059 2.81901 9.97426 2.69531 10.2737C2.57161 10.5732 2.50651 10.8987 2.5 11.2503ZM12.5 13.7503H20V15.0003H12.5V13.7503ZM12.5 17.5003V16.2503H20V17.5003H12.5ZM12.5 20.0003V18.7503H20V20.0003H12.5Z" fill="white" fill-opacity="0.8"/>
</svg>
