<svg width="23" height="23" viewBox="0 0 23 23" fill="none" xmlns="http://www.w3.org/2000/svg">
<path d="M22.2861 9.34565H21.4V9.3H11.5V13.7H17.7167C16.8097 16.2614 14.3727 18.1 11.5 18.1C7.85515 18.1 4.9 15.1448 4.9 11.5C4.9 7.85515 7.85515 4.9 11.5 4.9C13.1825 4.9 14.7131 5.5347 15.8786 6.57145L18.9899 3.4601C17.0253 1.62915 14.3974 0.5 11.5 0.5C5.42525 0.5 0.5 5.42525 0.5 11.5C0.5 17.5748 5.42525 22.5 11.5 22.5C17.5748 22.5 22.5 17.5748 22.5 11.5C22.5 10.7625 22.4241 10.0425 22.2861 9.34565Z" fill="#FFC107"/>
<path d="M1.76813 6.38005L5.38218 9.0305C6.36008 6.6094 8.72838 4.9 11.4998 4.9C13.1823 4.9 14.7129 5.5347 15.8784 6.57145L18.9897 3.4601C17.0251 1.62915 14.3972 0.5 11.4998 0.5C7.27473 0.5 3.61063 2.88535 1.76813 6.38005Z" fill="#FF3D00"/>
<path d="M11.5001 22.5C14.3414 22.5 16.9231 21.4127 18.8751 19.6444L15.4706 16.7635C14.3293 17.632 12.9343 18.1015 11.5001 18.1C8.63905 18.1 6.2097 16.2757 5.2945 13.7297L1.7074 16.4935C3.5279 20.0558 7.225 22.5 11.5001 22.5Z" fill="#4CAF50"/>
<path d="M22.286 9.34565H21.4V9.3H11.5V13.7H17.7167C17.2828 14.919 16.5013 15.9843 15.4688 16.7641L15.4704 16.763L18.875 19.6439C18.6341 19.8628 22.5 17 22.5 11.5C22.5 10.7625 22.4241 10.0425 22.286 9.34565Z" fill="#1976D2"/>
</svg>
