<svg width="16" height="17" viewBox="0 0 16 17" fill="none" xmlns="http://www.w3.org/2000/svg">
<path d="M14.244 12.2582C13.7433 11.7572 13.1584 11.3483 12.516 11.0502C13.422 10.3162 14 9.19623 14 7.94024C14 5.72425 12.152 3.90627 9.93599 3.94026C7.754 3.97426 5.99601 5.75225 5.99601 7.94024C5.99601 9.19623 6.57601 10.3162 7.48 11.0502C6.83743 11.3481 6.25246 11.757 5.75201 12.2582C4.66002 13.3522 4.04002 14.7962 4.00002 16.3362C3.99949 16.3575 4.00324 16.3788 4.01104 16.3986C4.01884 16.4185 4.03054 16.4366 4.04545 16.4519C4.06036 16.4672 4.07818 16.4793 4.09786 16.4876C4.11753 16.4959 4.13867 16.5002 4.16002 16.5002H5.28002C5.36602 16.5002 5.43802 16.4322 5.44002 16.3462C5.47802 15.1862 5.94801 14.1002 6.77401 13.2762C7.19668 12.8513 7.69944 12.5144 8.25318 12.2851C8.80692 12.0558 9.40064 11.9385 9.99999 11.9402C11.218 11.9402 12.364 12.4142 13.226 13.2762C14.05 14.1002 14.52 15.1862 14.56 16.3462C14.562 16.4322 14.634 16.5002 14.72 16.5002H15.84C15.8613 16.5002 15.8824 16.4959 15.9021 16.4876C15.9218 16.4793 15.9396 16.4672 15.9545 16.4519C15.9694 16.4366 15.9811 16.4185 15.9889 16.3986C15.9967 16.3788 16.0005 16.3575 15.9999 16.3362C15.96 14.7962 15.34 13.3522 14.244 12.2582ZM9.99999 10.5002C9.31599 10.5002 8.672 10.2342 8.19 9.75023C7.94811 9.51024 7.75703 9.22399 7.62818 8.90855C7.49932 8.59311 7.43532 8.25495 7.44 7.91424C7.446 7.25824 7.708 6.62425 8.166 6.15425C8.646 5.66225 9.28799 5.38826 9.97399 5.38026C10.652 5.37426 11.31 5.63825 11.794 6.11225C12.29 6.59825 12.562 7.24824 12.562 7.94024C12.562 8.62424 12.296 9.26623 11.812 9.75023C11.5745 9.98882 11.2921 10.178 10.9811 10.3067C10.6701 10.4354 10.3366 10.5012 9.99999 10.5002ZM4.99002 8.46824C4.97202 8.29424 4.96202 8.11824 4.96202 7.94024C4.96202 7.62224 4.99202 7.31224 5.04802 7.01025C5.06202 6.93825 5.02402 6.86425 4.95802 6.83425C4.68602 6.71225 4.43602 6.54425 4.22002 6.33225C3.9655 6.08547 3.76522 5.78834 3.63196 5.45982C3.49869 5.13131 3.43537 4.77862 3.44603 4.42426C3.46403 3.78227 3.72203 3.17227 4.17202 2.71227C4.66602 2.20628 5.33002 1.93028 6.03601 1.93828C6.67401 1.94428 7.29 2.19028 7.756 2.62627C7.914 2.77427 8.05 2.93827 8.164 3.11427C8.204 3.17627 8.282 3.20227 8.35 3.17827C8.702 3.05627 9.07399 2.97027 9.45599 2.93027C9.56799 2.91827 9.63199 2.79827 9.58199 2.69827C8.93199 1.41228 7.604 0.524286 6.06801 0.500286C3.85003 0.466286 2.00204 2.28428 2.00204 4.49826C2.00204 5.75425 2.58003 6.87425 3.48603 7.60824C2.85003 7.90224 2.26404 8.30824 1.75604 8.81623C0.660046 9.91023 0.0400498 11.3542 5.00117e-05 12.8962C-0.000483795 12.9176 0.00326024 12.9388 0.0110616 12.9587C0.018863 12.9785 0.0305638 12.9967 0.0454745 13.0119C0.0603853 13.0272 0.0782045 13.0394 0.0978819 13.0477C0.117559 13.0559 0.138697 13.0602 0.160049 13.0602H1.28204C1.36804 13.0602 1.44004 12.9922 1.44204 12.9062C1.48004 11.7462 1.95004 10.6602 2.77603 9.83623C3.36403 9.24823 4.08402 8.84023 4.87002 8.64223C4.94802 8.62224 5.00002 8.54824 4.99002 8.46824Z" fill="white" fill-opacity="0.8"/>
</svg>
