<svg width="14" height="18" viewBox="0 0 14 18" fill="none" xmlns="http://www.w3.org/2000/svg">
<path d="M11.2 7.20001V5.40001C11.2 4.2861 10.7575 3.21782 9.96985 2.43016C9.1822 1.64251 8.11391 1.20001 7 1.20001C5.88609 1.20001 4.8178 1.64251 4.03015 2.43016C3.2425 3.21782 2.8 4.2861 2.8 5.40001V7.20001M11.8 7.20001H2.2C1.88174 7.20001 1.57652 7.32644 1.35147 7.55148C1.12643 7.77653 1 8.08175 1 8.40001V15.6C1 15.9183 1.12643 16.2235 1.35147 16.4485C1.57652 16.6736 1.88174 16.8 2.2 16.8H11.8C12.1183 16.8 12.4235 16.6736 12.6485 16.4485C12.8736 16.2235 13 15.9183 13 15.6V8.40001C13 8.08175 12.8736 7.77653 12.6485 7.55148C12.4235 7.32644 12.1183 7.20001 11.8 7.20001Z" stroke="white" stroke-opacity="0.6" stroke-width="1.2" stroke-linecap="round" stroke-linejoin="round"/>
</svg>
