<svg width="16" height="16" viewBox="0 0 16 16" fill="none" xmlns="http://www.w3.org/2000/svg">
<path d="M8 0.6C8.90174 0.6 9.76654 0.958213 10.4042 1.59584C11.0418 2.23346 11.4 3.09826 11.4 4C11.4 4.90174 11.0418 5.76654 10.4042 6.40416C9.76654 7.04179 8.90174 7.4 8 7.4C7.09826 7.4 6.23346 7.04179 5.59584 6.40416C4.95821 5.76654 4.6 4.90174 4.6 4C4.6 3.09826 4.95821 2.23346 5.59584 1.59584C6.23346 0.958213 7.09826 0.6 8 0.6ZM8 10.6C10.1371 10.6 12.0414 11.034 13.3892 11.7079C14.7727 12.3997 15.4 13.2446 15.4 14V15.4H0.6V14C0.6 13.2446 1.22732 12.3997 2.61083 11.7079C3.9586 11.034 5.86287 10.6 8 10.6Z" stroke="white" stroke-opacity="0.6" stroke-width="1.2"/>
</svg>
