<svg width="16" height="17" viewBox="0 0 16 17" fill="none" xmlns="http://www.w3.org/2000/svg">
<path fill-rule="evenodd" clip-rule="evenodd" d="M8.00001 5.55261C7.21831 5.55261 6.46863 5.86314 5.91588 6.41588C5.36314 6.96863 5.05261 7.71831 5.05261 8.50001C5.05261 9.2817 5.36314 10.0314 5.91588 10.5841C6.46863 11.1369 7.21831 11.4474 8.00001 11.4474C8.7817 11.4474 9.53138 11.1369 10.0841 10.5841C10.6369 10.0314 10.9474 9.2817 10.9474 8.50001C10.9474 7.71831 10.6369 6.96863 10.0841 6.41588C9.53138 5.86314 8.7817 5.55261 8.00001 5.55261ZM6.23157 8.50001C6.23157 8.03099 6.41789 7.58118 6.74953 7.24953C7.08118 6.91789 7.53099 6.73157 8.00001 6.73157C8.46902 6.73157 8.91883 6.91789 9.25048 7.24953C9.58212 7.58118 9.76844 8.03099 9.76844 8.50001C9.76844 8.96902 9.58212 9.41883 9.25048 9.75048C8.91883 10.0821 8.46902 10.2684 8.00001 10.2684C7.53099 10.2684 7.08118 10.0821 6.74953 9.75048C6.41789 9.41883 6.23157 8.96902 6.23157 8.50001Z" fill="#151515"/>
<path fill-rule="evenodd" clip-rule="evenodd" d="M7.98035 0.0508118C7.63059 0.0508118 7.339 0.0508118 7.10006 0.0665312C6.85579 0.0763687 6.61487 0.126838 6.38719 0.215866C6.12487 0.3244 5.8865 0.483547 5.6857 0.684216C5.48489 0.884885 5.32559 1.12315 5.21687 1.38539C5.10291 1.66048 5.07226 1.95129 5.05968 2.26725C5.05828 2.38278 5.02762 2.49606 4.97059 2.59653C4.91355 2.697 4.83198 2.78138 4.7335 2.8418C4.63197 2.89707 4.51809 2.9257 4.4025 2.92501C4.2869 2.92432 4.17336 2.89434 4.0725 2.83787C3.79269 2.6901 3.52546 2.57142 3.22994 2.53212C2.94852 2.49511 2.66256 2.51388 2.3884 2.58738C2.11423 2.66088 1.85723 2.78766 1.63206 2.96048C1.44138 3.11333 1.27749 3.29688 1.14711 3.50358C1.0135 3.70322 0.867308 3.95552 0.692823 4.25812L0.673173 4.2927C0.497902 4.5953 0.352497 4.8476 0.247177 5.06295C0.137141 5.28774 0.0506839 5.50938 0.0192451 5.75461C-0.0557364 6.32286 0.098062 6.89762 0.446814 7.35249C0.628373 7.58906 0.864951 7.76119 1.13218 7.92939C1.23171 7.9884 1.31464 8.07171 1.3732 8.17151C1.43176 8.27131 1.46403 8.38433 1.467 8.50001C1.46403 8.61568 1.43176 8.7287 1.3732 8.8285C1.31464 8.9283 1.23171 9.01161 1.13218 9.07062C0.864951 9.23882 0.629159 9.41095 0.446814 9.64752C0.273992 9.87269 0.147213 10.1297 0.0737153 10.4039C0.000218058 10.678 -0.018558 10.964 0.0184592 11.2454C0.050684 11.4906 0.136355 11.7123 0.246391 11.9371C0.352497 12.1524 0.497902 12.4047 0.673173 12.7073L0.692823 12.7419C0.867308 13.0445 1.0135 13.2968 1.14711 13.4964C1.28623 13.7031 1.43557 13.8894 1.63206 14.0387C1.85717 14.2117 2.11414 14.3386 2.38831 14.4123C2.66248 14.4859 2.94847 14.5048 3.22994 14.4679C3.52546 14.4286 3.79269 14.3107 4.0725 14.1621C4.17327 14.1058 4.28666 14.0759 4.4021 14.0752C4.51755 14.0745 4.63128 14.1031 4.73272 14.1582C4.832 14.2179 4.91428 14.302 4.97167 14.4027C5.02906 14.5033 5.05964 14.6169 5.06047 14.7328C5.07226 15.0487 5.10291 15.3395 5.21766 15.6146C5.3262 15.8769 5.48534 16.1153 5.68601 16.3161C5.88668 16.5169 6.12494 16.6762 6.38719 16.7849C6.61512 16.8792 6.85091 16.9162 7.10006 16.9327C7.339 16.9492 7.63059 16.9492 7.98035 16.9492H8.01965C8.36941 16.9492 8.661 16.9492 8.89994 16.9335C9.14988 16.9162 9.38488 16.8792 9.61281 16.7841C9.87513 16.6756 10.1135 16.5165 10.3143 16.3158C10.5151 16.1151 10.6744 15.8769 10.7831 15.6146C10.8971 15.3395 10.9277 15.0487 10.9403 14.7328C10.9416 14.6171 10.9722 14.5037 11.0292 14.403C11.0863 14.3024 11.1679 14.2179 11.2665 14.1574C11.3681 14.1023 11.482 14.0738 11.5976 14.0746C11.7132 14.0754 11.8267 14.1056 11.9275 14.1621C12.2073 14.3099 12.4745 14.4286 12.7701 14.4671C13.3383 14.5421 13.9131 14.3883 14.3679 14.0395C14.5644 13.8886 14.7138 13.7031 14.8529 13.4964C14.9865 13.2968 15.1327 13.0445 15.3072 12.7419L15.3268 12.7073C15.5021 12.4047 15.6475 12.1524 15.7528 11.9371C15.8629 11.7123 15.9493 11.4898 15.9808 11.2454C16.0557 10.6772 15.9019 10.1024 15.5532 9.64752C15.3716 9.41095 15.1351 9.23882 14.8678 9.07062C14.7683 9.01161 14.6854 8.9283 14.6268 8.8285C14.5682 8.7287 14.536 8.61568 14.533 8.50001C14.533 8.28151 14.6525 8.06458 14.8678 7.92939C15.1351 7.76119 15.3708 7.58906 15.5532 7.35249C15.726 7.12732 15.8528 6.87032 15.9263 6.59615C15.9998 6.32199 16.0186 6.03603 15.9815 5.75461C15.9445 5.513 15.8675 5.27925 15.7536 5.06295C15.6194 4.80184 15.477 4.54496 15.3268 4.2927L15.3072 4.25812C15.1636 4.00195 15.0121 3.75032 14.8529 3.50358C14.7224 3.29716 14.5586 3.11388 14.3679 2.96126C14.1428 2.7883 13.8859 2.66138 13.6117 2.58775C13.3375 2.51412 13.0515 2.49522 12.7701 2.53212C12.4745 2.57142 12.2073 2.68932 11.9275 2.83787C11.8267 2.8942 11.7133 2.92411 11.5979 2.92479C11.4825 2.92548 11.3687 2.89693 11.2673 2.8418C11.1685 2.78157 11.0866 2.69727 11.0293 2.59679C10.972 2.49631 10.9411 2.38292 10.9395 2.26725C10.9277 1.95129 10.8971 1.66048 10.7823 1.38539C10.6738 1.12307 10.5147 0.884705 10.314 0.683901C10.1133 0.483097 9.87506 0.32379 9.61281 0.21508C9.38488 0.120763 9.14909 0.0838226 8.89994 0.0673172C8.661 0.0508118 8.36941 0.0508118 8.01965 0.0508118H7.98035ZM6.83833 1.30444C6.89885 1.27929 6.99081 1.25649 7.18023 1.24313C7.37437 1.22977 7.62588 1.22977 8 1.22977C8.37412 1.22977 8.62563 1.22977 8.81977 1.24313C9.00919 1.25649 9.10115 1.27929 9.16167 1.30444C9.40296 1.40425 9.59395 1.59525 9.69377 1.83654C9.72521 1.91199 9.75114 2.03067 9.76136 2.31127C9.78494 2.93376 10.1064 3.53345 10.677 3.86277C11.2476 4.1921 11.9275 4.17087 12.4785 3.88007C12.7268 3.74881 12.8424 3.71187 12.9241 3.70165C13.1824 3.66753 13.4436 3.73736 13.6503 3.89578C13.7022 3.93587 13.7682 4.00425 13.8744 4.16144C13.9836 4.32335 14.1094 4.54107 14.2964 4.86489C14.4835 5.18871 14.6084 5.40721 14.6941 5.58169C14.7782 5.75225 14.8042 5.84342 14.812 5.90866C14.8461 6.1669 14.7763 6.42812 14.6179 6.6349C14.5676 6.70013 14.478 6.78187 14.2406 6.93121C13.7124 7.26289 13.354 7.84136 13.354 8.50001C13.354 9.15865 13.7124 9.73713 14.2406 10.0688C14.478 10.2181 14.5676 10.2999 14.6179 10.3651C14.7766 10.5718 14.8458 10.8328 14.812 11.0914C14.8042 11.1566 14.7774 11.2485 14.6941 11.4183C14.6084 11.5936 14.4835 11.8113 14.2964 12.1351C14.1094 12.4589 13.9828 12.6767 13.8744 12.8386C13.7682 12.9958 13.7022 13.0641 13.6503 13.1042C13.4436 13.2627 13.1824 13.3325 12.9241 13.2984C12.8424 13.2881 12.7276 13.2512 12.4785 13.1199C11.9283 12.8291 11.2476 12.8071 10.677 13.1365C10.1064 13.4658 9.78494 14.0663 9.76136 14.6887C9.75114 14.9693 9.72521 15.088 9.69377 15.1635C9.64439 15.2828 9.57198 15.3912 9.48068 15.4825C9.38938 15.5738 9.28097 15.6462 9.16167 15.6956C9.10115 15.7207 9.00919 15.7435 8.81977 15.7569C8.62563 15.7702 8.37412 15.7702 8 15.7702C7.62588 15.7702 7.37437 15.7702 7.18023 15.7569C6.99081 15.7435 6.89885 15.7207 6.83833 15.6956C6.71903 15.6462 6.61062 15.5738 6.51932 15.4825C6.42802 15.3912 6.35561 15.2828 6.30623 15.1635C6.27479 15.088 6.24886 14.9693 6.23864 14.6887C6.21506 14.0663 5.8936 13.4666 5.32298 13.1372C4.75237 12.8079 4.0725 12.8291 3.52153 13.1199C3.27317 13.2512 3.15763 13.2881 3.07589 13.2984C2.81765 13.3325 2.55642 13.2627 2.34965 13.1042C2.29778 13.0641 2.23176 12.9958 2.12565 12.8386C1.97779 12.6085 1.83704 12.3739 1.70358 12.1351C1.51652 11.8113 1.39155 11.5928 1.30588 11.4183C1.22178 11.2478 1.19584 11.1566 1.18798 11.0914C1.15386 10.8331 1.22369 10.5719 1.38212 10.3651C1.43242 10.2999 1.52202 10.2181 1.75939 10.0688C2.28756 9.73713 2.64596 9.15865 2.64596 8.50001C2.64596 7.84136 2.28756 7.26289 1.75939 6.93121C1.52202 6.78187 1.43242 6.70013 1.38212 6.6349C1.22369 6.42812 1.15386 6.1669 1.18798 5.90866C1.19584 5.84342 1.22257 5.75146 1.30588 5.58169C1.39155 5.40642 1.51652 5.18871 1.70358 4.86489C1.89064 4.54107 2.01718 4.32335 2.12565 4.16144C2.23176 4.00425 2.29778 3.93587 2.34965 3.89578C2.55642 3.73736 2.81765 3.66753 3.07589 3.70165C3.15763 3.71187 3.27238 3.74881 3.52153 3.88007C4.07171 4.17087 4.75237 4.19288 5.32298 3.86277C5.8936 3.53345 6.21506 2.93376 6.23864 2.31127C6.24886 2.03067 6.27479 1.91199 6.30623 1.83654C6.40605 1.59525 6.59704 1.40425 6.83833 1.30444Z" fill="#151515"/>
</svg>
